<svg width="32" height="32" viewBox="0 0 32 32" fill="none" xmlns="http://www.w3.org/2000/svg">
<path d="M25.8 8.99999L26 5.04999C26.0084 4.7778 25.9117 4.51282 25.73 4.30999C25.6359 4.21127 25.5226 4.13284 25.3971 4.07952C25.2715 4.02621 25.1364 3.99915 25 3.99999H7.00002C6.86363 3.99915 6.72851 4.02621 6.60297 4.07952C6.47743 4.13284 6.36412 4.21127 6.27002 4.30999C6.0883 4.51282 5.99162 4.7778 6.00002 5.04999L6.20002 9.04999L25.8 8.99999Z" fill="#ECF0F1"/>
<path d="M6.31006 11L7.13006 27.05C7.1429 27.3065 7.2539 27.5481 7.44006 27.725C7.62622 27.9019 7.87328 28.0003 8.13006 28H23.8801C24.1368 28.0003 24.3839 27.9019 24.5701 27.725C24.7562 27.5481 24.8672 27.3065 24.8801 27.05L25.7001 11.05L6.31006 11Z" fill="#ECF0F1"/>
<path d="M13.2098 12.67C13.1169 12.5762 13.0063 12.5019 12.8844 12.4511C12.7625 12.4003 12.6318 12.3742 12.4998 12.3742C12.3678 12.3742 12.2371 12.4003 12.1152 12.4511C11.9934 12.5019 11.8828 12.5762 11.7898 12.67L9.66982 14.79C9.57609 14.8829 9.5017 14.9935 9.45093 15.1154C9.40016 15.2373 9.37402 15.368 9.37402 15.5C9.37402 15.632 9.40016 15.7627 9.45093 15.8846C9.5017 16.0064 9.57609 16.117 9.66982 16.21L11.7898 18.33C11.8828 18.4237 11.9934 18.4981 12.1152 18.5489C12.2371 18.5996 12.3678 18.6258 12.4998 18.6258C12.6318 18.6258 12.7625 18.5996 12.8844 18.5489C13.0063 18.4981 13.1169 18.4237 13.2098 18.33L15.3298 16.21C15.4236 16.117 15.4979 16.0064 15.5487 15.8846C15.5995 15.7627 15.6256 15.632 15.6256 15.5C15.6256 15.368 15.5995 15.2373 15.5487 15.1154C15.4979 14.9935 15.4236 14.8829 15.3298 14.79L13.2098 12.67Z" fill="#99ABD5"/>
<path d="M21 19H18C17.4477 19 17 19.4477 17 20V23C17 23.5523 17.4477 24 18 24H21C21.5523 24 22 23.5523 22 23V20C22 19.4477 21.5523 19 21 19Z" fill="#99ABD5"/>
</svg>
