<svg width="32" height="32" viewBox="0 0 32 32" fill="none" xmlns="http://www.w3.org/2000/svg">
<path d="M16 8C15.7348 8 15.4804 7.89464 15.2929 7.70711C15.1054 7.51957 15 7.26522 15 7V5C15 4.73478 15.1054 4.48043 15.2929 4.29289C15.4804 4.10536 15.7348 4 16 4C16.2652 4 16.5196 4.10536 16.7071 4.29289C16.8946 4.48043 17 4.73478 17 5V7C17 7.26522 16.8946 7.51957 16.7071 7.70711C16.5196 7.89464 16.2652 8 16 8Z" fill="#B5985D"/>
<path d="M16 7C14.2 7 13 9.41 13 11C13 11.7956 13.3161 12.5587 13.8787 13.1213C14.4413 13.6839 15.2044 14 16 14C16.7956 14 17.5587 13.6839 18.1213 13.1213C18.6839 12.5587 19 11.7956 19 11C19 9.41 17.8 7 16 7Z" fill="#FFAC33"/>
<path d="M23 12H9C7.89543 12 7 12.8954 7 14V16C7 17.1046 7.89543 18 9 18H23C24.1046 18 25 17.1046 25 16V14C25 12.8954 24.1046 12 23 12Z" fill="#FFD983"/>
<path d="M23 22H9C7.89543 22 7 22.8954 7 24V26C7 27.1046 7.89543 28 9 28H23C24.1046 28 25 27.1046 25 26V24C25 22.8954 24.1046 22 23 22Z" fill="#FFD983"/>
<path d="M20 21.48C19.1506 21.4971 18.3108 21.2975 17.56 20.9C17.0842 20.6339 16.5449 20.5026 16 20.52C15.4551 20.5026 14.9158 20.6339 14.44 20.9C13.6921 21.2958 12.856 21.4954 12.01 21.48C11.1606 21.4971 10.3208 21.2975 9.57 20.9C9.09125 20.6322 8.54823 20.5007 8 20.52C7.73478 20.52 7.48043 20.4146 7.29289 20.2271C7.10536 20.0396 7 19.7852 7 19.52C7 19.2548 7.10536 19.0004 7.29289 18.8129C7.48043 18.6254 7.73478 18.52 8 18.52C8.84641 18.501 9.68339 18.7008 10.43 19.1C10.9087 19.3678 11.4518 19.4993 12 19.48C12.5449 19.4974 13.0842 19.3661 13.56 19.1C14.3109 18.7025 15.1506 18.5029 16 18.52C16.8494 18.5029 17.6892 18.7025 18.44 19.1C18.9187 19.3678 19.4618 19.4993 20.01 19.48C20.5579 19.4958 21.1 19.3645 21.58 19.1C22.3236 18.7025 23.157 18.5028 24 18.52C24.2652 18.52 24.5196 18.6254 24.7071 18.8129C24.8946 19.0004 25 19.2548 25 19.52C25 19.7852 24.8946 20.0396 24.7071 20.2271C24.5196 20.4146 24.2652 20.52 24 20.52C23.4518 20.5007 22.9087 20.6322 22.43 20.9C21.6821 21.2958 20.846 21.4954 20 21.48Z" fill="#BE1931"/>
</svg>
