<svg width="31" height="29" viewBox="0 0 31 29" fill="none" xmlns="http://www.w3.org/2000/svg">
<path d="M30.0958 16.7916H19.375C19.0324 16.7916 18.7039 16.6556 18.4617 16.4133C18.2194 16.1711 18.0833 15.8426 18.0833 15.5C18.0833 15.1574 18.2194 14.8289 18.4617 14.5866C18.7039 14.3444 19.0324 14.2083 19.375 14.2083H30.7804C30.9256 13.3548 30.9991 12.4907 31 11.625C31 11.2824 30.8639 10.9539 30.6217 10.7116C30.3794 10.4694 30.0509 10.3333 29.7083 10.3333H1.29167C0.949095 10.3333 0.620555 10.4694 0.378321 10.7116C0.136086 10.9539 0 11.2824 0 11.625C0.00268127 14.7197 0.931699 17.7428 2.66743 20.305C4.40315 22.8671 6.86612 24.851 9.73917 26.0012C9.53242 26.1083 9.35845 26.2692 9.23567 26.4671C9.11289 26.6649 9.04586 26.8922 9.04167 27.125C9.04167 27.4676 9.17775 27.7961 9.41999 28.0383C9.66222 28.2806 9.99076 28.4166 10.3333 28.4166H20.6667C21.0092 28.4166 21.3378 28.2806 21.58 28.0383C21.8222 27.7961 21.9583 27.4676 21.9583 27.125C21.9541 26.8922 21.8871 26.6649 21.7643 26.4671C21.6415 26.2692 21.4676 26.1083 21.2608 26.0012C23.3028 25.1812 25.1468 23.9359 26.6702 22.3479C28.1935 20.76 29.3613 18.8659 30.0958 16.7916Z" fill="#E5E5E5"/>
<path d="M14.7895 9.04167C14.4469 9.04167 14.1184 8.90558 13.8761 8.66335C13.6339 8.42111 13.4978 8.09257 13.4978 7.75C13.4714 6.45483 13.7501 5.17162 14.3116 4.00417C14.7363 3.16455 14.945 2.23225 14.9187 1.29167C14.9187 0.949095 15.0547 0.620555 15.297 0.378321C15.5392 0.136086 15.8677 0 16.2103 0C16.5529 0 16.8814 0.136086 17.1237 0.378321C17.3659 0.620555 17.502 0.949095 17.502 1.29167C17.5284 2.58684 17.2497 3.87005 16.6882 5.0375C16.2635 5.87711 16.0548 6.80942 16.0812 7.75C16.0812 7.91962 16.0477 8.08759 15.9828 8.2443C15.9179 8.40101 15.8228 8.5434 15.7028 8.66335C15.5829 8.78329 15.4405 8.87843 15.2838 8.94335C15.1271 9.00826 14.9591 9.04167 14.7895 9.04167Z" fill="#464646"/>
<path d="M9.62298 9.04167C9.28041 9.04167 8.95187 8.90558 8.70963 8.66335C8.4674 8.42111 8.33131 8.09257 8.33131 7.75C8.30485 6.45483 8.58361 5.17162 9.14506 4.00417C9.56985 3.16455 9.7785 2.23225 9.75215 1.29167C9.75215 0.949095 9.88823 0.620555 10.1305 0.378321C10.3727 0.136086 10.7012 0 11.0438 0C11.3864 0 11.7149 0.136086 11.9572 0.378321C12.1994 0.620555 12.3355 0.949095 12.3355 1.29167C12.3619 2.58684 12.0832 3.87005 11.5217 5.0375C11.0969 5.87711 10.8883 6.80942 10.9146 7.75C10.9146 8.09257 10.7786 8.42111 10.5363 8.66335C10.2941 8.90558 9.96555 9.04167 9.62298 9.04167Z" fill="#464646"/>
<path d="M19.9565 9.04167C19.6139 9.04167 19.2854 8.90558 19.0431 8.66335C18.8009 8.42111 18.6648 8.09257 18.6648 7.75C18.6383 6.45483 18.9171 5.17162 19.4786 4.00417C19.9033 3.16455 20.112 2.23225 20.0856 1.29167C20.0856 0.949095 20.2217 0.620555 20.464 0.378321C20.7062 0.136086 21.0347 0 21.3773 0C21.7199 0 22.0484 0.136086 22.2907 0.378321C22.5329 0.620555 22.669 0.949095 22.669 1.29167C22.6954 2.58684 22.4167 3.87005 21.8552 5.0375C21.4304 5.87711 21.2218 6.80942 21.2481 7.75C21.2481 7.91962 21.2147 8.08759 21.1498 8.2443C21.0849 8.40101 20.9898 8.5434 20.8698 8.66335C20.7499 8.78329 20.6075 8.87843 20.4508 8.94335C20.2941 9.00826 20.1261 9.04167 19.9565 9.04167Z" fill="#464646"/>
</svg>
